<svg xmlns="http://www.w3.org/2000/svg" xmlns:xlink="http://www.w3.org/1999/xlink" viewBox="0 0 1240.65 1337.03"><defs><style>.cls-1{isolation:isolate;}.cls-2{fill:url(#linear-gradient);}.cls-3{fill:url(#linear-gradient-2);}.cls-22,.cls-4{fill:#0047ac;}.cls-5{fill:url(#linear-gradient-3);}.cls-6{fill:url(#linear-gradient-4);}.cls-7{fill:url(#linear-gradient-5);}.cls-8{fill:url(#linear-gradient-6);}.cls-14,.cls-9{fill:#001b61;}.cls-10{fill:url(#linear-gradient-7);}.cls-11{fill:#a6deff;}.cls-12{fill:url(#linear-gradient-8);}.cls-13{fill:url(#linear-gradient-9);}.cls-14,.cls-22{mix-blend-mode:multiply;}.cls-15{fill:#fff;}.cls-16{fill:#0091ec;}.cls-17{fill:#b37900;}.cls-18{fill:#ffb600;}.cls-19{fill:#ffd370;}.cls-20{fill:url(#linear-gradient-10);}.cls-21,.cls-26,.cls-30,.cls-31{fill:#bcecff;}.cls-21{opacity:0.4;}.cls-23{fill:url(#linear-gradient-11);}.cls-24{fill:url(#linear-gradient-12);}.cls-25{fill:#0078ff;}.cls-26{opacity:0.22;}.cls-27{fill:url(#radial-gradient);}.cls-28{fill:#00aff1;}.cls-29{fill:url(#radial-gradient-2);}.cls-30{opacity:0.21;}.cls-31{opacity:0.15;}.cls-32{fill:url(#linear-gradient-13);}.cls-33{fill:url(#linear-gradient-14);}</style><linearGradient id="linear-gradient" x1="607.95" y1="1524.93" x2="687.58" y2="1524.93" gradientUnits="userSpaceOnUse"><stop offset="0" stop-color="#8ffbff"/><stop offset="0.06" stop-color="#a4fcff"/><stop offset="0.2" stop-color="#cbfdff"/><stop offset="0.32" stop-color="#e8feff"/><stop offset="0.43" stop-color="#f9ffff"/><stop offset="0.51" stop-color="#fff"/><stop offset="0.61" stop-color="#fbfdff"/><stop offset="0.71" stop-color="#eef9ff"/><stop offset="0.82" stop-color="#d8f1ff"/><stop offset="0.94" stop-color="#bae6ff"/><stop offset="1" stop-color="#a6deff"/></linearGradient><linearGradient id="linear-gradient-2" x1="596.31" y1="1134.86" x2="712.34" y2="1134.86" xlink:href="#linear-gradient"/><linearGradient id="linear-gradient-3" x1="4837.49" y1="981.97" x2="4953.52" y2="981.97" gradientTransform="matrix(-1, 0, 0, 1, 5549.83, 0)" gradientUnits="userSpaceOnUse"><stop offset="0" stop-color="#00aff1"/><stop offset="0.14" stop-color="#00acef"/><stop offset="0.23" stop-color="#00a3e9"/><stop offset="0.31" stop-color="#0094df"/><stop offset="0.38" stop-color="#007fd1"/><stop offset="0.45" stop-color="#0064bf"/><stop offset="0.5" stop-color="#0047ac"/><stop offset="0.58" stop-color="#0062be"/><stop offset="0.7" stop-color="#0084d4"/><stop offset="0.81" stop-color="#009ce4"/><stop offset="0.91" stop-color="#0ae"/><stop offset="1" stop-color="#00aff1"/></linearGradient><linearGradient id="linear-gradient-4" x1="763.09" y1="1136.15" x2="927.47" y2="1136.15" gradientUnits="userSpaceOnUse"><stop offset="0" stop-color="#a6deff"/><stop offset="0.06" stop-color="#bae6ff"/><stop offset="0.18" stop-color="#d8f1ff"/><stop offset="0.29" stop-color="#eef9ff"/><stop offset="0.39" stop-color="#fbfdff"/><stop offset="0.49" stop-color="#fff"/><stop offset="0.61" stop-color="#e8feff"/><stop offset="0.87" stop-color="#affcff"/><stop offset="1" stop-color="#8ffbff"/></linearGradient><linearGradient id="linear-gradient-5" x1="797.46" y1="1524.93" x2="877.1" y2="1524.93" xlink:href="#linear-gradient"/><linearGradient id="linear-gradient-6" x1="772.71" y1="981.97" x2="888.74" y2="981.97" gradientTransform="matrix(1, 0, 0, 1, 0, 0)" xlink:href="#linear-gradient-3"/><linearGradient id="linear-gradient-7" x1="642.59" y1="709.88" x2="840.81" y2="707.46" gradientUnits="userSpaceOnUse"><stop offset="0" stop-color="#a6deff"/><stop offset="0.01" stop-color="#abe0ff"/><stop offset="0.09" stop-color="#c9ebff"/><stop offset="0.18" stop-color="#e1f4ff"/><stop offset="0.27" stop-color="#f2faff"/><stop offset="0.37" stop-color="#fcfeff"/><stop offset="0.49" stop-color="#fff"/><stop offset="0.67" stop-color="#fdffff"/><stop offset="0.76" stop-color="#f5ffff"/><stop offset="0.83" stop-color="#e8feff"/><stop offset="0.88" stop-color="#d6feff"/><stop offset="0.93" stop-color="#befdff"/><stop offset="0.98" stop-color="#a1fcff"/><stop offset="1" stop-color="#8ffbff"/></linearGradient><linearGradient id="linear-gradient-8" x1="647.89" y1="589.82" x2="836.58" y2="589.82" gradientTransform="matrix(1, 0, 0, 1, 0, 0)" xlink:href="#linear-gradient-3"/><linearGradient id="linear-gradient-9" x1="655.85" y1="803.59" x2="829.67" y2="803.59" gradientTransform="matrix(1, 0, 0, 1, 0, 0)" xlink:href="#linear-gradient-3"/><linearGradient id="linear-gradient-10" x1="650.21" y1="480.28" x2="846.84" y2="480.28" gradientUnits="userSpaceOnUse"><stop offset="0" stop-color="#fff"/><stop offset="1" stop-color="#a6deff"/></linearGradient><linearGradient id="linear-gradient-11" x1="658.76" y1="473.35" x2="810" y2="473.35" gradientTransform="matrix(1, 0, 0, 1, 0, 0)" xlink:href="#linear-gradient-3"/><linearGradient id="linear-gradient-12" x1="699.03" y1="473.35" x2="755.84" y2="473.35" xlink:href="#linear-gradient-10"/><radialGradient id="radial-gradient" cx="698.02" cy="466.81" r="11.55" gradientTransform="translate(-395.61 -400.15)" gradientUnits="userSpaceOnUse"><stop offset="0" stop-color="#00aff1"/><stop offset="1" stop-color="#001b61"/></radialGradient><radialGradient id="radial-gradient-2" cx="779.1" cy="466.81" r="11.55" gradientTransform="translate(0 1.07)" xlink:href="#radial-gradient"/><linearGradient id="linear-gradient-13" x1="677.92" y1="400" x2="683.36" y2="428.09" gradientTransform="translate(156.1 -184.36) rotate(17.37)" xlink:href="#linear-gradient-3"/><linearGradient id="linear-gradient-14" x1="4271.19" y1="398.79" x2="4276.63" y2="426.89" gradientTransform="matrix(-0.3, -0.95, -0.95, 0.3, 2463.69, 4372.88)" xlink:href="#linear-gradient-3"/></defs><g class="cls-1"><g id="Layer_1" data-name="Layer 1"><g id="ROBOT_RIGHT" data-name="ROBOT RIGHT"><g id="LEGS"><path class="cls-2" d="M687.58,1346.18l-1.1,30.24-.86,23.8-12.33,338H639c-9.7-63.89-24.4-167.61-28.89-237-5.3-82.27.18-132.19,7.2-161.75,1.27-5.39,2.6-10.09,3.92-14.19a122,122,0,0,1,5.28-13.69c11.26,30.88,24.54,50.59,37.75,50.59C673.61,1362.18,681.3,1357.22,687.58,1346.18Z" transform="translate(-395.61 -401.23)"/><path class="cls-3" d="M712.34,951.39v166c-1.77,127.59-8.29,196.78-24,226.17-.25.46-.5.92-.76,1.36-6.28,11-14,16-23.37,16-13.21,0-26.48-19.69-37.74-50.57-17.51-48-30.16-122.89-30.16-193v-147c0-34,32.3-61.48,63.65-61.48h8.51a45.34,45.34,0,0,1,9.54,1c18.76,4,33,19.71,34.23,38.82C712.31,949.57,712.34,950.48,712.34,951.39Z" transform="translate(-395.61 -401.23)"/><path class="cls-4" d="M705.2,1271.57c-1,13.41-2,25.54-3,36.45-3.16,31.92-7.15,53.48-14.58,66.53-6.28,11-14,16.14-23.37,16-12.4-.18-31.92-21.11-44.44-70.64-4.63-18.26-8.29-40.42-10.31-66.86,5.54,21.89,10.92,41.85,17,58.54,11.26,30.89,24.53,50.58,37.74,50.58,9.4,0,17.09-5,23.37-16,.26-.44.51-.9.76-1.36C696.05,1330.52,700.16,1306.82,705.2,1271.57Z" transform="translate(-395.61 -401.23)"/><path class="cls-5" d="M596.31,992.6v18.52c4.72-16.09,10.76-29.4,18.06-39.73,11.19-15.84,25.17-24.3,41.56-25.11,18-.91,31.63,8.21,41.76,27.86,6.35,12.31,11.24,28.93,14.65,49.62V995.4a132.22,132.22,0,0,0-9.28-24c-11.17-21.67-27.13-32.14-47.44-31.13-18.33.91-33.87,10.22-46.19,27.67A120.49,120.49,0,0,0,596.31,992.6Z" transform="translate(-395.61 -401.23)"/><path class="cls-6" d="M888.74,971.6v147.05c0,70.06-12.66,145-30.16,192.94-11.26,30.88-24.54,50.59-37.75,50.59-9.39,0-17.09-5-23.37-16-.25-.44-.5-.9-.75-1.37-8-15-13.66-40.48-17.48-78.84-3.66-36.62-5.65-85-6.52-147.32v-166c0-.91,0-1.82.1-2.72,1.23-19.11,15.47-34.79,34.23-38.82a45.34,45.34,0,0,1,9.54-1h8.51c15.34,0,30.9,6.58,42.8,17.28C880.31,938.59,888.74,954.25,888.74,971.6Z" transform="translate(-395.61 -401.23)"/><path class="cls-7" d="M875,1501.22c-4.48,69.43-19.18,173.15-28.88,237H811.77L799.65,1406l-1-27.49-1.18-32.36c6.28,11,14,16,23.37,16,13.21,0,26.49-19.71,37.75-50.59a111.88,111.88,0,0,1,4.55,11.49q1.27,3.74,2.55,8.22C873.63,1359.51,880.81,1410.84,875,1501.22Z" transform="translate(-395.61 -401.23)"/><path class="cls-4" d="M874.26,1253.05q-1.44,18.75-3.9,34.67c-11.07,72.8-36,102.62-50.85,102.83-9.4.12-17.09-5-23.37-16a65.34,65.34,0,0,1-5.14-11.93c-6.29-19-9.37-48.61-12.47-91,5,35.25,9.14,59,16.85,73.25.25.46.5.92.76,1.36,6.28,11,14,16,23.37,16,13.21,0,26.48-19.69,37.75-50.58C863.34,1294.9,868.72,1274.94,874.26,1253.05Z" transform="translate(-395.61 -401.23)"/><path class="cls-8" d="M888.74,992.6v18.52C884,995,878,981.72,870.67,971.39c-11.18-15.84-25.17-24.3-41.55-25.11-18-.91-31.63,8.21-41.77,27.86-6.34,12.31-11.24,28.93-14.64,49.62V995.4a131.49,131.49,0,0,1,9.28-24c11.16-21.67,27.12-32.14,47.43-31.13,18.34.91,33.87,10.22,46.19,27.67A121,121,0,0,1,888.74,992.6Z" transform="translate(-395.61 -401.23)"/></g><g id="BODY"><ellipse class="cls-9" cx="345.12" cy="168.47" rx="97.6" ry="10.42"/><path class="cls-9" d="M658,825.35a173.24,173.24,0,0,1-11-23.49c-.08-.18-.14-.36-.2-.53a250.7,250.7,0,0,1-11.24-39.48s-6.16-30-12.55-62.6c-6-30.58-12.17-63.51-13.68-76.41a37.65,37.65,0,0,1-.35-4.77,51.3,51.3,0,0,1,11-29.19,64.25,64.25,0,0,1,6.86-7.57l.75-.69A75.12,75.12,0,0,1,642.64,570c4.4,1.45,9.17,2.81,14.28,4a40.87,40.87,0,0,0-7.27,12c-.37.93-.7,1.89-1,2.86a41.14,41.14,0,0,0-1.84,12.23V778A104.25,104.25,0,0,0,658,825.35Z" transform="translate(-395.61 -401.23)"/><path class="cls-9" d="M875.71,622.89c-1.56,13.2-8,47.26-14.08,78.36h0c-6.25,31.85-12.15,60.59-12.15,60.59a252.52,252.52,0,0,1-11.22,39.45c-.07.18-.14.38-.22.56a173.24,173.24,0,0,1-11,23.49A104.14,104.14,0,0,0,838.26,778V601.15a41.41,41.41,0,0,0-2.43-14c-.35-.95-.73-1.89-1.14-2.8a.77.77,0,0,0-.07-.16c-.27-.61-.56-1.21-.86-1.8s-.62-1.18-1-1.75-.67-1.14-1-1.71l-.54-.82c-.37-.55-.75-1.09-1.15-1.62-.58-.79-1.21-1.57-1.85-2.31-.29-.33-.58-.67-.88-1s-.6-.64-.91-.95c4.45-1.25,8.59-2.59,12.38-4A78,78,0,0,1,852,576.09c13.95,10.37,23.36,25,24.09,42A38.63,38.63,0,0,1,875.71,622.89Z" transform="translate(-395.61 -401.23)"/><path class="cls-10" d="M838.26,601.15V778a105.71,105.71,0,0,1-.85,13.4,103.91,103.91,0,0,1-7.74,28.29c-.74,1.71-1.53,3.41-2.36,5.07-.1.18-.19.37-.28.55,0,0,0,0,0,0a129.74,129.74,0,0,1-12.27,18,107.46,107.46,0,0,0-9.47-10.24,93.65,93.65,0,0,0-14.1-11.08c-.36-.23-.71-.45-1.07-.66A93.09,93.09,0,0,0,768.83,812l-.32-.09c-.5-.15-1-.3-1.52-.43-2.13-.6-4.3-1.12-6.48-1.54-.88-.17-1.75-.35-2.63-.49l-1.32-.22-1.84-.26c-.8-.11-1.6-.21-2.4-.29l-.19,0c-.74-.08-1.49-.15-2.24-.2-1.52-.13-3-.21-4.59-.26l-.69,0-2.08,0-2.11,0-.67,0c-1.28,0-2.54.1-3.8.19-.17,0-.34,0-.5,0l-1,.08-1.74.17c-.8.08-1.61.18-2.4.29s-1.28.17-1.91.27c-.42.06-.83.14-1.24.21-.56.09-1.11.18-1.67.3a6.52,6.52,0,0,0-.72.14l-1.38.27-.45.11c-.59.11-1.17.25-1.75.4-1,.22-1.91.47-2.85.73-.69.18-1.38.38-2,.57a93.64,93.64,0,0,0-22.44,10.13l-.23.15a94.61,94.61,0,0,0-13.88,10.94,107.38,107.38,0,0,0-9.46,10.24,130.2,130.2,0,0,1-12-17.59l-.26-.46s0,0,0,0q-1.14-2.24-2.17-4.55a102.31,102.31,0,0,1-6.31-18.8,105.38,105.38,0,0,1-2.73-24V601.15a41.22,41.22,0,0,1,10.11-27.09c22.05,5.33,50.37,6.13,81.25,6.13,34.27,0,65.38-1.53,88.28-8,.31.31.61.63.91.95s.59.66.88,1c.64.74,1.26,1.52,1.85,2.31.39.53.78,1.07,1.15,1.62l.54.82c.36.57.7,1.13,1,1.71s.65,1.16,1,1.75.59,1.19.86,1.8a40.12,40.12,0,0,1,2.79,8.63A40.89,40.89,0,0,1,838.26,601.15Z" transform="translate(-395.61 -401.23)"/><path class="cls-11" d="M837.41,676.66V791.44a103.91,103.91,0,0,1-7.74,28.29c-.74,1.71-1.53,3.41-2.36,5.07-.1.18-.19.37-.28.55,0,0,0,0,0,0a129.74,129.74,0,0,1-12.27,18,106.31,106.31,0,0,0-7.7-8.52c-.58-.59-1.18-1.15-1.77-1.72a93.65,93.65,0,0,0-14.1-11.08c-.36-.23-.71-.45-1.07-.66A93.09,93.09,0,0,0,768.83,812l-.32-.09c-.5-.15-1-.3-1.52-.43-2.13-.6-4.3-1.12-6.48-1.54-.88-.17-1.75-.35-2.63-.49l-1.32-.22-1.84-.26c-.8-.11-1.6-.21-2.4-.29l-.19,0c-.74-.08-1.49-.15-2.24-.2-1.52-.13-3-.21-4.59-.26l-.69,0-2.08,0-2.11,0-.67,0c-1.28,0-2.54.1-3.8.19-.17,0-.34,0-.5,0l-1,.08-1.74.17c-.8.08-1.61.18-2.4.29s-1.28.17-1.91.27c-.42.06-.83.14-1.24.21-.56.09-1.11.18-1.67.3a6.52,6.52,0,0,0-.72.14l-1.38.27-.45.11c-.59.11-1.17.25-1.75.4-1,.22-1.91.47-2.85.73-.69.18-1.38.38-2,.57a93.64,93.64,0,0,0-22.44,10.13l-.23.15a94.61,94.61,0,0,0-13.88,10.94c-.6.56-1.18,1.13-1.76,1.71a106.3,106.3,0,0,0-7.7,8.53,130.2,130.2,0,0,1-12-17.59l-.26-.46s0,0,0,0q-1.14-2.24-2.17-4.55a102.31,102.31,0,0,1-6.31-18.8,104.65,104.65,0,0,1-1.91-10.71V683.91s8.44,86.4,93.68,86.4C828.34,770.31,837.41,676.66,837.41,676.66Z" transform="translate(-395.61 -401.23)"/><path class="cls-12" d="M836.58,587.44l-.48.24a30.07,30.07,0,0,1-5.94,2,161.27,161.27,0,0,1-21.2,3.36c-18.5,2-43.09,3.07-69.24,3.07S689,595,670.48,593.06a162,162,0,0,1-21.21-3.36l-.78-.2-.6-.16.18-.6c.31-1,.65-2,1-2.91l.2-.49.51.13c5.14,1.35,12.8,2.55,22.77,3.57,18.18,1.84,42,2.86,67.15,2.86s49-1,67.15-2.87c19-1.93,25.4-4.1,27.54-5.23l.57-.3.26.59c.42.94.81,1.9,1.15,2.84Z" transform="translate(-395.61 -401.23)"/><path class="cls-13" d="M813.2,803.34c-18.74-14.18-43.62-22-70-22s-51.31,7.81-70,22a82.12,82.12,0,0,0-17.26,17.46q1,2.31,2.17,4.55s0,0,0,0l.26.46c15.45-23.47,47.68-39.65,84.86-39.65,36.62,0,68.44,15.7,84.15,38.61.83-1.66,1.62-3.36,2.36-5.07A83.06,83.06,0,0,0,813.2,803.34Z" transform="translate(-395.61 -401.23)"/><path class="cls-9" d="M807,834.91v76.23c-18.76,4-33,19.71-34.23,38.82h-.19v25.93c0,5.7-13.47,10.32-30.1,10.32s-30.1-4.62-30.1-10.32V950h-.18C711,930.85,696.77,915.17,678,911.14V834.9c.58-.58,1.16-1.15,1.76-1.71a94.61,94.61,0,0,1,13.88-10.94l.23-.15A93.64,93.64,0,0,1,716.32,812c.67-.19,1.36-.39,2-.57.94-.26,1.89-.51,2.85-.73.58-.15,1.16-.29,1.75-.4l.45-.11,1.38-.27a6.52,6.52,0,0,1,.72-.14c.56-.12,1.11-.21,1.67-.3.41-.07.82-.15,1.24-.21.63-.1,1.27-.19,1.91-.27s1.6-.21,2.4-.29l1.74-.17,1-.08c.16,0,.33,0,.5,0,1.26-.09,2.52-.15,3.8-.19l.67,0,2.11,0,2.08,0,.69,0c1.54,0,3.07.13,4.59.26.75,0,1.5.12,2.24.2l.19,0c.8.08,1.6.18,2.4.29l1.84.26,1.32.22c.88.14,1.75.32,2.63.49,2.18.42,4.35.94,6.48,1.54.51.13,1,.28,1.52.43l.32.09a93.09,93.09,0,0,1,21.27,9.45c.36.21.71.43,1.07.66a93.65,93.65,0,0,1,14.1,11.08C805.86,833.76,806.46,834.32,807,834.91Z" transform="translate(-395.61 -401.23)"/><path class="cls-14" d="M807,834.91v15.71c-.58-.59-1.18-1.16-1.77-1.72a93.65,93.65,0,0,0-14.1-11.08c-.36-.23-.71-.45-1.07-.66a93.09,93.09,0,0,0-21.27-9.45l-.32-.09c-.5-.15-1-.3-1.52-.43-2.13-.6-4.3-1.12-6.48-1.55-.88-.17-1.75-.34-2.63-.49l-1.32-.21-1.84-.26c-.8-.11-1.6-.22-2.4-.29l-.19,0c-.74-.09-1.49-.15-2.24-.21-1.52-.12-3-.2-4.59-.25l-.69,0-2.08,0c-.7,0-1.41,0-2.11,0l-.67,0c-1.28,0-2.54.1-3.8.19-.17,0-.34,0-.5,0l-1,.08-1.74.17c-.8.07-1.61.18-2.4.29s-1.28.17-1.91.27l-1.24.2c-.56.1-1.11.19-1.67.31a6.52,6.52,0,0,0-.72.14c-.46.08-.92.18-1.38.27a3.28,3.28,0,0,0-.45.11c-.59.11-1.17.25-1.75.39-1,.23-1.91.48-2.85.73l-2,.58a92.86,92.86,0,0,0-22.44,10.13l-.23.15a94.61,94.61,0,0,0-13.88,10.94c-.6.56-1.18,1.13-1.76,1.71V834.9c.58-.58,1.16-1.15,1.76-1.71a94.61,94.61,0,0,1,13.88-10.94l.23-.15A93.64,93.64,0,0,1,716.32,812c.67-.19,1.36-.39,2-.57.94-.26,1.89-.51,2.85-.73.58-.15,1.16-.29,1.75-.4l.45-.11,1.38-.27a6.52,6.52,0,0,1,.72-.14c.56-.12,1.11-.21,1.67-.3.41-.07.82-.15,1.24-.21.63-.1,1.27-.19,1.91-.27s1.6-.21,2.4-.29l1.74-.17,1-.08c.16,0,.33,0,.5,0,1.26-.09,2.52-.15,3.8-.19l.67,0,2.11,0,2.08,0,.69,0c1.54,0,3.07.13,4.59.26.75,0,1.5.12,2.24.2l.19,0c.8.08,1.6.18,2.4.29l1.84.26,1.32.22c.88.14,1.75.32,2.63.49,2.18.42,4.35.94,6.48,1.54.51.13,1,.28,1.52.43l.32.09a93.09,93.09,0,0,1,21.27,9.45c.36.21.71.43,1.07.66a93.65,93.65,0,0,1,14.1,11.08C805.86,833.76,806.46,834.32,807,834.91Z" transform="translate(-395.61 -401.23)"/></g><g id="HANDS"><path class="cls-15" d="M1076.4,783.31v46.42l-2.69-1.6L861.63,701.26h0c6.09-31.1,12.52-65.16,14.08-78.36a38.63,38.63,0,0,0,.35-4.82c-.73-16.93-10.14-31.61-24.09-42l0-.85Z" transform="translate(-395.61 -401.23)"/><path class="cls-15" d="M1089.74,834s81.5-20.19,144.92-49c75.68-34.39,123.84-63.63,123.84-63.63V695.61s-216.73,60.18-263.17,84.26S1089.74,834,1089.74,834Z" transform="translate(-395.61 -401.23)"/><path class="cls-15" d="M1374,691.87h129.86s-11.18,27-60.2,27.51C1386,720,1374,691.87,1374,691.87Z" transform="translate(-395.61 -401.23)"/><path class="cls-9" d="M1118.12,806.09A28.17,28.17,0,0,1,1089.74,834a28.51,28.51,0,0,1-20.42-8.53,27.63,27.63,0,0,1-8-19.41,27.3,27.3,0,0,1,1.33-8.47,28.44,28.44,0,0,1,55.43,8.47Z" transform="translate(-395.61 -401.23)"/><path class="cls-16" d="M1107.62,806.09a17.88,17.88,0,1,1-17.88-17.6A17.74,17.74,0,0,1,1107.62,806.09Z" transform="translate(-395.61 -401.23)"/><path class="cls-9" d="M1385.78,707.71a16.1,16.1,0,1,1-16.1-15.84A16,16,0,0,1,1385.78,707.71Z" transform="translate(-395.61 -401.23)"/><path class="cls-16" d="M1379.82,707.71a10.14,10.14,0,1,1-10.14-10A10.06,10.06,0,0,1,1379.82,707.71Z" transform="translate(-395.61 -401.23)"/><path class="cls-15" d="M623,699.25,450.85,835.83,398.4,833,620,588.88a51.3,51.3,0,0,0-11,29.19,37.65,37.65,0,0,0,.35,4.77C610.85,635.74,617,668.67,623,699.25Z" transform="translate(-395.61 -401.23)"/><path class="cls-9" d="M452.38,846.1A28.16,28.16,0,0,1,425.59,874c-.53,0-1.06,0-1.6,0a28.58,28.58,0,0,1-12.3-2.76h0a27.9,27.9,0,0,1-16.08-25.18c0-.3,0-.58,0-.87A28.18,28.18,0,0,1,424,818.15a28.55,28.55,0,0,1,17.79,6.17,28,28,0,0,1,8.63,11.55A27.48,27.48,0,0,1,452.38,846.1Z" transform="translate(-395.61 -401.23)"/><path class="cls-16" d="M441.87,846.09A17.88,17.88,0,1,1,424,828.49,17.75,17.75,0,0,1,441.87,846.09Z" transform="translate(-395.61 -401.23)"/><path class="cls-15" d="M678.2,843.06l125.44,33.6s-17.78,23.15-65.27,11C682.54,873.39,678.2,843.06,678.2,843.06Z" transform="translate(-395.61 -401.23)"/><path class="cls-15" d="M679.19,835.83v23.22s-20.52,4.42-51.6,9.13c-9.44,1.43-19.85,2.88-31,4.25-38.89,4.76-86.31,8.42-130.29,6A366.06,366.06,0,0,1,425.59,874a28.16,28.16,0,0,0,26.79-27.9,27.48,27.48,0,0,0-2-10.23l.44,0Z" transform="translate(-395.61 -401.23)"/><path class="cls-9" d="M696.91,851.68a16.1,16.1,0,1,1-16.1-15.85A16,16,0,0,1,696.91,851.68Z" transform="translate(-395.61 -401.23)"/><path class="cls-16" d="M691,851.68a10.14,10.14,0,1,1-10.14-10A10.06,10.06,0,0,1,691,851.68Z" transform="translate(-395.61 -401.23)"/><path class="cls-17" d="M627.59,868.18v210.09H493.42V1046h103.2V872.43C607.74,871.06,618.15,869.61,627.59,868.18Z" transform="translate(-395.61 -401.23)"/><path class="cls-18" d="M617.84,835.83c-11.72,0-21.22,8.73-21.22,19.48V1046H466.33V855.31c0-10.75,9.5-19.48,21.22-19.48Z" transform="translate(-395.61 -401.23)"/></g><g id="DISH"><path class="cls-9" d="M1625.51,691.74H1243.64a10.75,10.75,0,1,1,0-21.49h381.87a10.75,10.75,0,1,1,0,21.49Z" transform="translate(-395.61 -401.23)"/><path class="cls-18" d="M1613.05,669.24h-357c0-78.37,61.91-143.68,144-158.19q6.54-1.17,13.24-1.88a199.09,199.09,0,0,1,42.55,0q6.7.72,13.24,1.88C1551.14,525.56,1613.05,590.87,1613.05,669.24Z" transform="translate(-395.61 -401.23)"/><path class="cls-17" d="M1613.05,669.23h-46.69c-4.94-85-82.85-152.61-178.23-152.61q-6.29,0-12.46.39a195.55,195.55,0,0,1,58.9-9C1533.14,508,1613.05,580.2,1613.05,669.23Z" transform="translate(-395.61 -401.23)"/><path class="cls-19" d="M1295.11,630.64a7.27,7.27,0,0,1-6.58-10.31c17.88-38.49,50.71-69.47,92.43-87.23a7.25,7.25,0,1,1,5.68,13.34c-38.42,16.35-68.59,44.76-85,80A7.27,7.27,0,0,1,1295.11,630.64Z" transform="translate(-395.61 -401.23)"/><path class="cls-17" d="M1469.15,509q0,1.07-.06,2.1-6.54-1.17-13.24-1.88V509c0-12.82-9.55-23.25-21.28-23.25S1413.3,496.13,1413.3,509v.22q-6.71.72-13.24,1.88-.06-1-.06-2.1c0-20.14,15.51-36.55,34.57-36.55S1469.15,488.81,1469.15,509Z" transform="translate(-395.61 -401.23)"/></g><g id="HEAD"><path class="cls-15" d="M846.84,473.73c0,14.36-3.17,27.61-9,38.31-7,12.91-17.89,22.09-31.7,24.93-16.58,5.22-40.62,8.5-67.35,8.5S688,542.19,671.45,537c-13.81-2.84-24.68-12-31.7-24.93-5.8-10.7-9-23.95-9-38.31,0-14.71,2.58-28.25,8.42-39.07a46.33,46.33,0,0,1,12.95-15.31,37.35,37.35,0,0,1,10.13-6.21c16.08-7.16,44.35-11.91,76.53-11.91s60.46,4.75,76.54,11.92a37.34,37.34,0,0,1,10.12,6.2,46.18,46.18,0,0,1,12.94,15.31C844.26,445.48,846.84,459,846.84,473.73Z" transform="translate(-395.61 -401.23)"/><path class="cls-20" d="M846.84,473.72c0,14.37-3.17,27.63-9,38.32C830.85,525,820,534.13,806.17,537c-16.59,5.22-40.63,8.5-67.36,8.5S688,542.19,671.45,537a43.54,43.54,0,0,1-21.24-11.16,42.5,42.5,0,0,0,12.18,4.52c16.59,5.22,40.62,8.49,67.36,8.49s50.76-3.27,67.35-8.49c13.81-2.85,24.68-12,31.7-24.93,5.81-10.7,9-24,9-38.32,0-14.7-2.58-28.25-8.42-39.07a47,47,0,0,0-10-12.92,31.78,31.78,0,0,1,6.16,4.25,46.32,46.32,0,0,1,12.94,15.32C844.26,445.48,846.84,459,846.84,473.72Z" transform="translate(-395.61 -401.23)"/><path class="cls-4" d="M859.51,473.34c0,16.86-4.25,31.19-10.21,36.5a7.66,7.66,0,0,1-5.1,2.2h-6.33c5.8-10.7,9-23.95,9-38.32,0-14.7-2.58-28.24-8.42-39.06h5.78a7.64,7.64,0,0,1,5.1,2.19C855.26,442.16,859.51,456.49,859.51,473.34Z" transform="translate(-395.61 -401.23)"/><path class="cls-21" d="M857.42,492.84a92.32,92.32,0,0,0,1-13.45c0-16.86-4.26-31.18-10.22-36.5a7.65,7.65,0,0,0-5.09-2.19h-1.83a59.55,59.55,0,0,0-2.82-6h5.78a7.64,7.64,0,0,1,5.1,2.19c6,5.31,10.21,19.64,10.21,36.5A87.17,87.17,0,0,1,857.42,492.84Z" transform="translate(-395.61 -401.23)"/><path class="cls-22" d="M857.42,453.85a92.46,92.46,0,0,1,1,13.46c0,16.86-4.26,31.18-10.22,36.5a7.65,7.65,0,0,1-5.09,2.19h-1.83a59.55,59.55,0,0,1-2.82,6h5.78a7.69,7.69,0,0,0,5.1-2.19c6-5.32,10.21-19.64,10.21-36.5A87.33,87.33,0,0,0,857.42,453.85Z" transform="translate(-395.61 -401.23)"/><path class="cls-4" d="M618.11,473.34c0,16.86,4.26,31.19,10.22,36.5a7.61,7.61,0,0,0,5.09,2.2h6.34c-5.81-10.7-9-23.95-9-38.32,0-14.7,2.58-28.24,8.42-39.06h-5.78a7.6,7.6,0,0,0-5.09,2.19C622.37,442.16,618.11,456.49,618.11,473.34Z" transform="translate(-395.61 -401.23)"/><path class="cls-21" d="M620.2,492.84a92.36,92.36,0,0,1-1-13.45c0-16.86,4.25-31.18,10.21-36.5a7.65,7.65,0,0,1,5.09-2.19h1.84a57.41,57.41,0,0,1,2.81-6h-5.78a7.65,7.65,0,0,0-5.09,2.19c-6,5.31-10.22,19.64-10.22,36.5A87.17,87.17,0,0,0,620.2,492.84Z" transform="translate(-395.61 -401.23)"/><path class="cls-22" d="M620.2,453.85a92.5,92.5,0,0,0-1,13.46c0,16.86,4.25,31.18,10.21,36.5a7.67,7.67,0,0,0,5.09,2.19h1.84a59.49,59.49,0,0,0,2.81,6h-5.78a7.65,7.65,0,0,1-5.09-2.19c-6-5.32-10.22-19.64-10.22-36.5A87.33,87.33,0,0,1,620.2,453.85Z" transform="translate(-395.61 -401.23)"/><path class="cls-23" d="M810,473.61a56.43,56.43,0,0,1-6.29,26.83c-4.91,9-12.52,15.45-22.18,17.45-11.62,3.65-28.44,5.94-47.15,5.94s-35.54-2.29-47.16-5.94c-9.66-2-17.27-8.42-22.18-17.45-4.07-7.5-6.28-16.77-6.28-26.83,0-10.29,1.8-19.77,5.89-27.34a32.41,32.41,0,0,1,9.06-10.72,26.64,26.64,0,0,1,7.09-4.35c11.26-5,31.05-8.34,53.58-8.34s42.32,3.33,53.58,8.35a26.31,26.31,0,0,1,7.08,4.34,32.29,32.29,0,0,1,9.06,10.72C808.19,453.84,810,463.32,810,473.61Z" transform="translate(-395.61 -401.23)"/><path class="cls-24" d="M814.43,473.61a56.54,56.54,0,0,1-6.28,26.83c-4.92,9-12.53,15.45-22.19,17.45-11.62,3.65-28.44,5.94-47.15,5.94s-35.54-2.29-47.15-5.94c-9.67-2-17.28-8.42-22.19-17.45a56.54,56.54,0,0,1-6.28-26.83c0-10.29,1.8-19.77,5.89-27.34a32.32,32.32,0,0,1,9.07-10.72,26.31,26.31,0,0,1,7.09-4.35c11.25-5,31-8.34,53.57-8.34s42.32,3.33,53.58,8.35a26.15,26.15,0,0,1,7.08,4.34,32.29,32.29,0,0,1,9.06,10.72C812.62,453.84,814.43,463.32,814.43,473.61Z" transform="translate(-395.61 -401.23)"/><path class="cls-9" d="M803.09,473.57a45.26,45.26,0,0,1-5.34,22.06c-4.18,7.44-10.65,12.72-18.86,14.36-9.87,3-24.18,4.89-40.08,4.89S708.6,513,698.73,510c-8.22-1.64-14.68-6.92-18.86-14.36a45.26,45.26,0,0,1-5.34-22.06c0-8.47,1.54-16.27,5-22.5a26.8,26.8,0,0,1,7.71-8.82,22.43,22.43,0,0,1,6-3.58c9.57-4.12,26.39-6.86,45.54-6.86s36,2.74,45.54,6.87a22.17,22.17,0,0,1,6,3.57,26.77,26.77,0,0,1,7.7,8.82C801.55,457.3,803.09,465.1,803.09,473.57Z" transform="translate(-395.61 -401.23)"/><path class="cls-25" d="M718.17,483.73c0,1.28-.67,2.32-1.51,2.32s-1.5-1-1.5-2.32.67-2.31,1.5-2.31S718.17,482.45,718.17,483.73Z" transform="translate(-395.61 -401.23)"/><path class="cls-25" d="M759.87,483.73c0,1.28-.67,2.32-1.51,2.32s-1.5-1-1.5-2.32.67-2.31,1.5-2.31S759.87,482.45,759.87,483.73Z" transform="translate(-395.61 -401.23)"/><path class="cls-25" d="M739.25,490.91c0,1.79-.78,3.25-1.74,3.25s-1.73-1.46-1.73-3.25.78-3.24,1.73-3.24S739.25,489.12,739.25,490.91Z" transform="translate(-395.61 -401.23)"/><path class="cls-25" d="M733.23,490c0,1.79-.78,3.24-1.74,3.24s-1.74-1.45-1.74-3.24.78-3.25,1.74-3.25S733.23,488.2,733.23,490Z" transform="translate(-395.61 -401.23)"/><path class="cls-25" d="M745.27,490c0,1.79-.77,3.24-1.73,3.24s-1.74-1.45-1.74-3.24.78-3.25,1.74-3.25S745.27,488.2,745.27,490Z" transform="translate(-395.61 -401.23)"/><path class="cls-25" d="M727.78,488.37c0,1.79-.77,3.24-1.73,3.24s-1.74-1.45-1.74-3.24.78-3.25,1.74-3.25S727.78,486.57,727.78,488.37Z" transform="translate(-395.61 -401.23)"/><path class="cls-25" d="M750.72,488.37c0,1.79-.78,3.24-1.74,3.24s-1.74-1.45-1.74-3.24.78-3.25,1.74-3.25S750.72,486.57,750.72,488.37Z" transform="translate(-395.61 -401.23)"/><path class="cls-25" d="M722.86,486.74c0,1.79-.78,3.25-1.74,3.25s-1.73-1.46-1.73-3.25.78-3.24,1.73-3.24S722.86,485,722.86,486.74Z" transform="translate(-395.61 -401.23)"/><path class="cls-25" d="M755.64,486.74c0,1.79-.78,3.25-1.73,3.25s-1.74-1.46-1.74-3.25.78-3.24,1.74-3.24S755.64,485,755.64,486.74Z" transform="translate(-395.61 -401.23)"/><path class="cls-26" d="M803.09,473.56a45.16,45.16,0,0,1-5.34,22.07c-4.18,7.44-10.65,12.72-18.87,14.36-9.86,3-24.16,4.89-40.07,4.89S708.61,513,698.73,510c-8.05-1.61-14.43-6.71-18.61-13.92a26.45,26.45,0,0,0,14.58,8.38c9.87,3,24.17,4.89,40.08,4.89s30.21-1.88,40.08-4.89c8.22-1.64,14.68-6.92,18.86-14.35A45.32,45.32,0,0,0,799.06,468c0-8.47-1.53-16.27-5-22.5,0,0,0,0,0-.08a27.44,27.44,0,0,1,4.07,5.62C801.55,457.3,803.09,465.1,803.09,473.56Z" transform="translate(-395.61 -401.23)"/><ellipse class="cls-27" cx="302.41" cy="66.52" rx="11.55" ry="11.54"/><path class="cls-28" d="M703.56,467.75a5.54,5.54,0,1,1-5.54-5.54A5.54,5.54,0,0,1,703.56,467.75Z" transform="translate(-395.61 -401.23)"/><path class="cls-29" d="M790.65,467.75a11.55,11.55,0,1,1-11.55-11.54A11.55,11.55,0,0,1,790.65,467.75Z" transform="translate(-395.61 -401.23)"/><path class="cls-28" d="M784.64,467.75a5.54,5.54,0,1,1-5.54-5.54A5.54,5.54,0,0,1,784.64,467.75Z" transform="translate(-395.61 -401.23)"/><path class="cls-30" d="M748.84,436.25a60.54,60.54,0,0,1-60.41,58.92l-1.61,0c-.37-.57-.72-1.15-1.06-1.75a40.78,40.78,0,0,1-4.8-19.86c0-7.62,1.38-14.63,4.51-20.24a24.16,24.16,0,0,1,6.93-7.94,20.38,20.38,0,0,1,5.42-3.22c8.62-3.71,23.76-6.18,41-6.18C742.25,436,745.61,436.06,748.84,436.25Z" transform="translate(-395.61 -401.23)"/><path class="cls-4" d="M773,562.89c0,9.34-5.41,16.92-12.09,16.92H723.2c-6.68,0-12.09-7.58-12.09-16.92S716.52,546,723.2,546H761C767.63,546,773,553.54,773,562.89Z" transform="translate(-395.61 -401.23)"/><path class="cls-31" d="M733.17,579.81h-10c-6.68,0-12.09-7.59-12.09-16.92S716.52,546,723.2,546h10c-6.68,0-12.08,7.57-12.08,16.92S726.49,579.81,733.17,579.81Z" transform="translate(-395.61 -401.23)"/><path class="cls-31" d="M751,579.81h10c6.68,0,12.09-7.59,12.09-16.92S767.63,546,761,546H751c6.67,0,12.08,7.57,12.08,16.92S757.65,579.81,751,579.81Z" transform="translate(-395.61 -401.23)"/><rect class="cls-32" x="679.45" y="406.52" width="4.23" height="24.61" transform="translate(-489.56 -178.68) rotate(-17.37)"/><rect class="cls-33" x="776.73" y="415.5" width="24.61" height="4.23" transform="translate(-240.69 644.79) rotate(-72.63)"/></g></g></g></g></svg>